<?xml version="1.0" standalone="no"?>
<!DOCTYPE svg PUBLIC "-//W3C//DTD SVG 20010904//EN"
 "http://www.w3.org/TR/2001/REC-SVG-20010904/DTD/svg10.dtd">
<svg version="1.0" xmlns="http://www.w3.org/2000/svg"
 width="260.000000pt" height="260.000000pt" viewBox="0 0 260.000000 260.000000"
 preserveAspectRatio="xMidYMid meet">
<metadata>
Created by potrace 1.11, written by Peter Selinger 2001-2013
</metadata>
<g transform="translate(0.000000,260.000000) scale(0.100000,-0.100000)"
fill="#000000" stroke="none">
<path d="M1359 2125 c-3 -77 -1 -536 3 -540 4 -4 38 -12 61 -14 4 -1 7 -6 7
-12 0 -5 -5 -7 -12 -3 -7 4 -8 3 -4 -4 4 -6 13 -9 21 -5 8 3 15 0 15 -6 0 -13
42 -10 52 4 5 6 8 3 8 -7 0 -11 5 -15 15 -12 8 4 15 10 15 16 0 5 -5 6 -12 2
-7 -5 -8 -3 -3 6 6 10 11 10 20 -3 12 -17 31 -25 22 -9 -3 4 6 8 19 8 16 1 24
-4 25 -15 0 -12 2 -12 9 4 5 11 9 15 9 9 1 -6 8 -11 16 -11 8 0 12 4 9 9 -3 4
-1 8 5 8 5 0 12 -6 14 -12 4 -10 6 -10 6 0 1 6 8 12 17 12 8 0 12 5 9 10 -4 6
-11 7 -17 4 -7 -4 -8 -2 -4 5 4 6 12 9 17 6 5 -4 9 -1 9 4 0 6 -4 11 -10 11
-5 0 -10 5 -10 11 0 5 5 7 10 4 6 -3 10 -1 10 5 0 6 -7 13 -15 16 -16 6 -11
24 6 24 6 0 7 -5 3 -12 -5 -7 -3 -8 5 -3 9 5 9 11 3 17 -6 6 -8 17 -5 26 5 11
3 13 -8 7 -11 -7 -12 -6 -2 6 10 12 10 18 0 29 -10 10 -8 12 7 6 14 -5 16 -4
8 6 -6 7 -11 18 -11 23 -1 6 -5 10 -10 10 -5 0 -13 4 -18 8 -4 5 -1 7 7 5 8
-2 14 3 12 10 -1 8 2 11 8 7 6 -3 7 -11 4 -17 -4 -7 -2 -8 4 -4 15 9 15 12 -4
30 -12 13 -5 24 9 14 2 -2 12 4 22 12 11 8 16 10 13 5 -4 -6 -3 -17 3 -25 6
-11 9 -11 9 -2 0 8 9 11 26 8 20 -4 24 -2 20 11 -5 12 -4 13 7 5 10 -9 17 -8
26 1 10 9 11 9 6 -5 -7 -17 9 -20 32 -5 6 4 13 1 16 -5 3 -10 7 -10 20 1 11 9
17 10 17 2 0 -6 5 -10 12 -9 20 5 36 -62 37 -160 3 -173 33 -261 108 -313 24
-17 21 -26 -20 -52 -62 -40 -85 -116 -88 -287 -2 -90 -18 -181 -36 -200 -2 -2
-58 -6 -125 -7 -102 -2 -118 0 -108 12 10 12 8 13 -10 10 -18 -3 -20 -2 -10
10 7 8 17 12 24 9 6 -3 2 2 -8 10 -20 16 -20 16 0 17 17 0 16 1 -3 9 -13 5
-23 12 -23 15 0 4 5 3 12 -1 8 -5 9 0 5 15 -4 18 -3 20 9 10 12 -10 13 -9 8 5
-3 9 -11 16 -18 17 -6 0 -2 4 9 9 17 7 18 9 2 9 -16 1 -16 3 -1 26 9 14 14 28
10 32 -3 3 -6 1 -6 -5 0 -7 -4 -12 -9 -12 -5 0 -8 10 -7 23 2 20 -1 23 -26 19
-16 -2 -28 0 -27 4 6 32 -2 34 -140 34 -102 0 -140 -3 -143 -12 -6 -22 -2
-524 5 -542 4 -9 17 -16 32 -16 16 0 25 -6 25 -15 0 -8 8 -15 18 -15 14 0 15
-2 2 -10 -8 -5 -10 -10 -4 -10 6 0 17 6 24 14 6 8 18 12 26 9 8 -3 14 1 14 8
0 7 3 9 6 6 4 -4 2 -13 -4 -20 -10 -11 -5 -14 22 -13 19 1 32 4 30 7 -2 4 3
12 10 18 12 10 14 8 9 -11 -4 -18 -3 -20 6 -8 6 8 11 10 11 5 0 -6 11 -11 24
-11 14 0 23 3 20 7 -2 4 3 12 10 18 12 10 14 8 9 -11 -3 -17 -2 -19 5 -9 8 11
10 11 15 0 4 -10 6 -10 6 -1 1 6 6 12 12 12 5 0 8 -4 5 -9 -3 -4 5 -8 17 -7
14 1 22 7 21 19 -1 9 2 14 7 11 5 -3 9 -12 9 -20 0 -17 16 -19 26 -3 4 8 9 7
15 -2 5 -9 9 -10 9 -3 0 7 7 15 16 18 14 5 15 4 4 -9 -11 -13 -10 -15 8 -12
12 2 25 7 29 12 5 4 1 4 -7 0 -13 -8 -13 -7 -1 8 14 18 26 23 16 8 -9 -16 15
-24 31 -10 12 10 13 9 8 -7 -6 -16 -5 -17 7 -7 15 15 33 17 25 4 -3 -4 5 -8
17 -7 14 1 22 7 21 19 -1 9 2 14 7 11 5 -3 9 -12 9 -21 0 -15 2 -14 18 0 10
10 21 14 25 11 12 -12 83 -11 104 2 16 10 24 11 29 2 5 -7 3 -8 -6 -3 -8 5
-11 4 -7 -3 8 -12 56 7 54 22 -1 5 4 11 12 14 10 3 11 0 5 -9 -6 -11 -5 -12 8
-2 8 7 19 9 24 5 4 -4 3 0 -4 9 -14 18 -6 30 14 22 8 -3 18 5 24 21 5 14 12
26 15 26 4 0 3 -6 -1 -12 -4 -8 -3 -10 2 -5 5 5 9 12 9 15 0 4 3 12 7 18 4 6
8 28 10 48 1 21 6 40 12 43 5 4 6 1 1 -7 -5 -8 -4 -11 2 -7 11 7 8 60 -3 79
-4 6 -2 8 4 4 6 -3 13 -2 17 4 5 9 -6 14 -26 12 -3 -1 -6 5 -6 12 0 7 6 13 13
13 7 0 10 -5 7 -10 -3 -6 -1 -7 5 -4 12 8 11 24 -6 55 -8 14 -9 22 -2 22 6 0
8 10 3 27 -3 16 -6 37 -4 48 4 34 4 39 -4 60 -7 19 -7 19 7 2 13 -18 14 -17
14 10 -1 15 -5 31 -11 35 -6 5 -3 8 7 8 9 0 20 5 24 12 5 7 2 9 -9 5 -11 -4
-14 -2 -11 8 3 8 13 11 22 7 15 -5 15 -4 3 11 -12 15 -12 17 4 11 13 -5 16 -4
10 5 -6 11 -3 11 16 0 21 -11 22 -10 12 3 -13 15 -8 28 11 28 6 0 5 -4 -2 -9
-11 -7 -11 -9 2 -14 12 -5 16 0 17 16 1 15 3 17 6 5 2 -9 12 -19 21 -23 13 -5
14 -3 5 6 -9 9 -7 19 10 43 12 17 27 34 32 38 6 5 5 8 -4 8 -10 0 -12 8 -8 29
4 19 2 32 -6 35 -9 5 -9 7 1 12 6 3 12 10 12 15 0 6 -4 7 -10 4 -12 -7 -14 8
-3 19 10 10 13 66 3 66 -4 0 -7 11 -6 25 0 14 -3 24 -9 22 -5 -1 -9 -4 -8 -7
1 -3 -7 -6 -17 -6 -12 0 -17 6 -15 18 4 18 -9 31 -34 35 -49 7 -65 15 -50 24
12 7 11 9 -2 9 -9 0 -20 7 -23 16 -5 14 -4 15 9 4 13 -11 14 -10 9 4 -3 9 -11
16 -16 16 -6 0 -4 8 3 17 12 15 12 16 -3 11 -11 -5 -15 -2 -13 10 1 9 -2 25
-7 36 -7 12 -7 16 0 12 5 -3 16 2 23 11 10 12 10 14 2 9 -12 -7 -18 5 -14 28
1 5 -4 13 -11 17 -10 7 -9 9 5 9 19 0 24 20 5 21 -7 0 -4 4 7 9 18 8 18 9 2 9
-17 1 -17 2 -3 17 9 8 16 18 16 22 0 3 -5 1 -12 -6 -7 -7 -17 -12 -23 -12 -5
0 -3 5 5 10 13 9 13 11 0 21 -12 9 -10 10 8 6 17 -4 21 -2 14 6 -5 7 -12 27
-15 45 -5 25 -4 31 6 26 9 -5 9 -4 0 7 -7 7 -13 21 -13 31 0 10 -7 21 -16 25
-13 5 -13 7 -2 14 11 7 11 9 -1 9 -7 0 -11 6 -8 15 4 8 2 17 -4 20 -5 4 -6 11
-3 17 4 7 2 8 -5 4 -9 -6 -9 -11 0 -22 15 -18 2 -18 -16 0 -11 10 -11 16 -2
26 9 10 9 11 -1 5 -9 -5 -27 5 -50 28 -80 76 -108 80 -539 81 -327 1 -333 1
-334 -19z m1156 -914 c3 -5 2 -12 -3 -15 -5 -3 -9 1 -9 9 0 17 3 19 12 6z
m-818 -237 c-3 -3 -12 -4 -19 -1 -8 3 -5 6 6 6 11 1 17 -2 13 -5z m484 -487
c-10 -9 -11 -8 -5 6 3 10 9 15 12 12 3 -3 0 -11 -7 -18z"/>
<path d="M687 2134 c-1 -1 -38 -4 -82 -8 -94 -7 -98 -8 -149 -25 -57 -19 -125
-63 -132 -83 -3 -10 -10 -18 -16 -18 -6 0 -8 -3 -5 -6 3 -4 2 -15 -4 -26 -15
-28 -20 -70 -24 -227 -7 -225 -31 -271 -145 -275 -12 -1 -15 -25 -18 -140 -3
-144 3 -166 39 -166 10 0 21 -5 25 -12 4 -7 3 -8 -4 -4 -7 4 -12 5 -12 2 0 -3
9 -10 20 -16 16 -9 19 -8 14 7 -3 10 2 7 10 -7 8 -14 15 -19 16 -11 0 9 7 6
20 -9 11 -13 20 -26 21 -29 0 -3 3 -15 5 -26 2 -11 5 -83 5 -160 1 -230 17
-271 154 -383 6 -5 17 -6 24 -4 8 3 11 0 7 -6 -3 -5 8 -15 24 -21 17 -5 28 -6
25 -2 -3 5 6 4 19 -2 13 -7 22 -16 19 -20 -3 -5 7 -1 23 9 28 18 29 18 14 -1
-9 -11 -10 -16 -2 -11 7 4 12 2 13 -6 0 -7 4 -4 9 7 5 11 9 14 9 6 1 -10 4
-11 15 -2 11 9 16 9 22 0 4 -7 3 -9 -3 -6 -5 3 -10 0 -10 -8 0 -11 4 -12 14
-4 10 9 18 8 31 -2 15 -13 16 -12 4 2 -10 14 -10 18 3 23 9 3 13 2 10 -4 -3
-6 -3 -10 2 -10 90 -6 133 -3 129 6 -2 6 2 11 10 11 7 0 11 -4 7 -10 -3 -5 11
-7 31 -6 25 3 40 -1 46 -11 8 -13 10 -12 10 2 0 27 16 29 46 6 15 -13 25 -17
20 -10 -9 15 12 18 68 8 14 -3 26 0 26 6 0 6 -8 7 -17 3 -14 -5 -15 -4 -6 6
10 10 17 9 33 -6 14 -12 20 -14 20 -5 0 9 7 7 22 -6 12 -10 18 -14 15 -8 -4 7
2 14 14 17 13 4 22 0 26 -10 5 -14 8 -13 14 5 8 20 23 23 46 9 8 -5 10 2 8 24
-4 28 -3 30 13 18 16 -12 16 -12 0 6 -15 16 -16 20 -2 30 14 10 14 13 -2 26
-10 7 -15 9 -11 2 4 -6 4 -14 -1 -17 -4 -2 -8 6 -8 19 0 14 5 21 12 18 7 -2
15 1 20 8 4 7 3 10 -2 6 -6 -3 -16 -2 -24 4 -12 7 -12 9 4 9 15 0 16 3 6 15
-7 8 -17 12 -23 8 -5 -3 -7 -1 -4 5 4 5 17 8 30 5 13 -3 17 -1 11 4 -6 4 -11
24 -10 45 1 26 -2 34 -11 27 -7 -7 -14 -6 -19 2 -4 8 -3 9 4 5 7 -4 12 -1 12
8 0 10 -9 16 -26 16 -14 0 -23 4 -20 9 17 27 -29 32 -280 33 -263 1 -296 6
-270 37 6 9 6 12 1 9 -6 -4 -16 2 -23 12 -9 16 -9 21 4 28 14 8 14 10 -1 25
-15 16 -15 17 1 17 16 0 16 1 -2 16 -10 8 -13 13 -6 9 7 -4 12 1 12 14 0 11 5
23 10 26 6 3 10 12 9 18 0 9 -2 8 -6 -1 -2 -7 -14 -17 -26 -24 -21 -11 -21
-10 -4 9 9 11 17 26 17 34 0 12 -2 11 -10 -1 -5 -8 -10 -10 -10 -4 0 6 7 17
15 24 20 17 19 30 -2 30 -15 0 -16 2 -3 10 12 8 12 10 -5 11 -15 0 -16 2 -5 7
8 4 16 13 18 21 3 12 0 12 -13 1 -13 -11 -14 -10 -9 5 5 11 4 16 -3 12 -5 -3
-10 0 -10 8 0 8 4 12 8 9 4 -2 11 1 15 7 4 7 3 9 -4 5 -16 -10 -27 15 -11 26
10 6 6 7 -11 2 -23 -6 -24 -6 -10 11 9 11 10 16 3 11 -8 -4 -13 -2 -13 4 0 6
-5 8 -12 4 -8 -5 -9 -2 -5 10 5 12 2 16 -11 14 -12 -2 -17 3 -16 20 0 12 -4
22 -9 22 -28 0 15 19 50 22 7 1 10 5 7 10 -3 5 -11 6 -17 3 -7 -3 -2 2 11 11
12 9 22 23 22 31 0 8 5 11 10 8 6 -3 10 -1 10 4 0 6 -4 11 -10 11 -5 0 -10 5
-10 11 0 5 5 7 12 3 7 -5 9 -2 5 9 -3 9 0 18 9 21 11 4 13 10 5 23 -7 13 -5
21 7 30 16 12 16 13 0 7 -10 -3 -18 -1 -18 5 0 6 7 11 16 11 14 0 14 3 4 15
-10 12 -10 15 1 15 9 1 8 5 -5 15 -16 12 -17 15 -4 15 19 0 15 59 -5 73 -8 6
-5 7 8 2 11 -3 16 -3 12 1 -4 4 -1 14 6 22 7 10 8 13 1 9 -7 -4 -18 1 -25 10
-10 12 -10 14 -1 9 21 -12 32 2 22 29 -6 16 -6 27 2 31 7 4 8 3 4 -4 -5 -8 -2
-10 9 -6 12 5 13 10 4 20 -9 11 -8 15 5 19 9 3 23 7 32 10 8 3 13 8 11 12 -3
5 19 6 49 5 35 -3 52 -8 47 -14 -3 -7 -1 -8 5 -4 6 4 9 13 5 21 -3 8 0 15 7
15 6 0 9 -4 6 -9 -3 -5 1 -14 8 -20 11 -9 16 -9 22 0 4 8 3 9 -4 5 -18 -11
-14 0 5 15 10 8 14 9 10 2 -5 -8 2 -12 20 -12 34 0 54 -4 70 -14 6 -4 15 -2
19 4 5 8 3 9 -7 4 -12 -8 -12 -6 0 8 13 17 36 14 26 -4 -4 -5 -1 -9 4 -9 6 0
11 4 11 10 0 5 7 7 15 4 8 -4 12 -11 8 -17 -3 -6 -1 -7 5 -3 7 4 12 14 12 22
0 8 5 14 11 14 5 0 8 -4 5 -9 -3 -5 1 -14 8 -20 11 -9 16 -9 22 0 5 8 3 10 -7
4 -11 -6 -11 -5 -2 5 9 10 15 10 28 -4 15 -14 35 -14 35 0 0 3 -4 3 -9 -1 -5
-3 -12 -2 -14 2 -3 5 14 8 38 8 24 0 41 -3 39 -7 -2 -4 0 -10 6 -13 6 -4 9 -1
8 7 -2 8 5 13 18 12 19 -1 20 3 14 30 -4 17 -5 42 -3 55 2 13 -2 30 -8 37 -9
11 -7 15 5 20 16 6 16 8 0 32 -15 23 -15 25 0 19 9 -4 15 -3 11 2 -3 5 -2 11
2 14 5 2 1 2 -7 0 -8 -2 -11 -1 -7 3 4 4 1 14 -6 23 -11 14 -10 14 6 2 16 -13
17 -12 8 11 -7 18 -6 30 2 39 10 11 9 11 -4 1 -12 -9 -18 -9 -27 0 -7 7 -12 8
-12 4 0 -5 7 -14 16 -20 13 -10 13 -12 -5 -12 -11 0 -17 4 -15 8 3 4 0 8 -5 8
-6 0 -11 9 -11 19 0 25 -17 36 -33 22 -7 -5 -22 -8 -33 -5 -17 4 -452 12 -457
8z m283 -308 c0 -3 -4 -8 -10 -11 -5 -3 -10 -1 -10 4 0 6 5 11 10 11 6 0 10
-2 10 -4z m-162 -1371 c-3 -3 -9 2 -12 12 -6 14 -5 15 5 6 7 -7 10 -15 7 -18z"/>
<path d="M2244 2061 c20 -22 26 -25 26 -13 0 4 -10 13 -22 21 -23 14 -23 14
-4 -8z"/>
<path d="M2350 1619 c0 -5 5 -7 10 -4 6 3 10 8 10 11 0 2 -4 4 -10 4 -5 0 -10
-5 -10 -11z"/>
<path d="M550 1259 c0 -5 5 -7 10 -4 6 3 10 8 10 11 0 2 -4 4 -10 4 -5 0 -10
-5 -10 -11z"/>
<path d="M2510 1155 c-7 -9 -11 -17 -8 -20 2 -2 12 4 21 15 9 11 13 20 8 20
-5 0 -14 -7 -21 -15z"/>
<path d="M645 860 c4 -6 11 -8 16 -5 14 9 11 15 -7 15 -8 0 -12 -5 -9 -10z"/>
<path d="M2348 643 c7 -3 16 -2 19 1 4 3 -2 6 -13 5 -11 0 -14 -3 -6 -6z"/>
<path d="M2015 460 c-3 -5 -1 -10 4 -10 6 0 11 5 11 10 0 6 -2 10 -4 10 -3 0
-8 -4 -11 -10z"/>
<path d="M1226 448 c3 -5 10 -6 15 -3 13 9 11 12 -6 12 -8 0 -12 -4 -9 -9z"/>
</g>
</svg>
